<svg width="24" height="24" viewBox="0 0 24 24" fill="none" xmlns="http://www.w3.org/2000/svg">
<g clip-path="url(#clip0)">
<path d="M4.20833 23H17.9583C18.8106 22.9976 19.627 22.6572 20.2285 22.0534C20.83 21.4497 21.1674 20.632 21.1667 19.7798V12.8709C21.1667 12.6278 21.0701 12.3946 20.8982 12.2227C20.7263 12.0508 20.4931 11.9542 20.25 11.9542C20.0069 11.9542 19.7737 12.0508 19.6018 12.2227C19.4299 12.3946 19.3333 12.6278 19.3333 12.8709V19.7798C19.3346 20.1459 19.1905 20.4976 18.9327 20.7576C18.6749 21.0176 18.3245 21.1648 17.9583 21.1667H4.20833C3.84219 21.1648 3.49178 21.0176 3.23399 20.7576C2.97621 20.4976 2.83212 20.1459 2.83333 19.7798V6.05362C2.83212 5.68748 2.97621 5.33581 3.23399 5.07579C3.49178 4.81577 3.84219 4.66865 4.20833 4.66671H11.0833C11.3264 4.66671 11.5596 4.57013 11.7315 4.39822C11.9034 4.22631 12 3.99316 12 3.75004C12 3.50693 11.9034 3.27377 11.7315 3.10186C11.5596 2.92995 11.3264 2.83337 11.0833 2.83337H4.20833C3.35611 2.8358 2.53967 3.17624 1.93817 3.77997C1.33667 4.3837 0.999269 5.2014 1 6.05362V19.7798C0.999269 20.632 1.33667 21.4497 1.93817 22.0534C2.53967 22.6572 3.35611 22.9976 4.20833 23V23Z" fill="#737380"/>
<path d="M9.66711 10.6654L8.94386 13.9782C8.91112 14.1285 8.91672 14.2846 8.96013 14.4321C9.00354 14.5796 9.08337 14.7139 9.19228 14.8225C9.30268 14.9283 9.43697 15.006 9.58378 15.0489C9.73058 15.0919 9.88557 15.0988 10.0356 15.069L13.3411 14.344C13.5127 14.3063 13.6699 14.22 13.7939 14.0955L22.1484 5.74105C22.4039 5.48568 22.6065 5.1825 22.7447 4.84883C22.8829 4.51515 22.9541 4.15751 22.9541 3.79634C22.9541 3.43516 22.8829 3.07753 22.7447 2.74385C22.6065 2.41018 22.4039 2.107 22.1484 1.85163C21.6248 1.35126 20.9285 1.07202 20.2042 1.07202C19.4799 1.07202 18.7836 1.35126 18.2599 1.85163L9.91828 10.2144C9.79308 10.3375 9.7059 10.4941 9.66711 10.6654ZM19.5561 3.14871C19.7305 2.98164 19.9627 2.88837 20.2042 2.88837C20.4457 2.88837 20.6779 2.98164 20.8523 3.14871C21.0219 3.32162 21.1169 3.55415 21.1169 3.79634C21.1169 4.03853 21.0219 4.27105 20.8523 4.44396L20.2042 5.09205L18.908 3.79588L19.5561 3.14871ZM11.3978 11.3199L17.6073 5.0948L18.8906 6.38455L12.6784 12.6115L11.0329 12.9726L11.3978 11.3199Z" fill="#737380"/>
</g>
<defs>
<clipPath id="clip0">
<rect width="22" height="22" fill="white" transform="translate(1 1)"/>
</clipPath>
</defs>
</svg>
