<svg width="170" height="28" viewBox="0 0 170 28" fill="none" xmlns="http://www.w3.org/2000/svg">
<path d="M98.6737 17.2336C99.0484 15.1402 99.7855 13.2835 100.885 11.6636C102.009 10.0436 103.371 8.79751 104.97 7.92523C106.569 7.05296 108.256 6.61682 110.029 6.61682C111.579 6.61682 112.878 6.92835 113.927 7.5514C115.002 8.17445 115.789 8.9595 116.288 9.90654L116.813 6.95327H122.097L118.425 27.6636H113.14L113.702 24.6355C112.878 25.6075 111.803 26.4174 110.479 27.0654C109.18 27.6885 107.756 28 106.207 28C104.683 28 103.333 27.6636 102.159 26.9907C100.985 26.2928 100.073 25.3209 99.4232 24.0748C98.7736 22.8037 98.4488 21.3333 98.4488 19.6636C98.4488 18.891 98.5237 18.081 98.6737 17.2336ZM114.977 17.3084C115.077 16.6604 115.126 16.1869 115.126 15.8879C115.126 14.4174 114.689 13.271 113.815 12.4486C112.965 11.6262 111.891 11.215 110.592 11.215C109.617 11.215 108.668 11.4517 107.743 11.9252C106.844 12.3988 106.057 13.0966 105.382 14.0187C104.708 14.9159 104.258 15.9875 104.033 17.2336C103.958 17.7072 103.921 18.1558 103.921 18.5794C103.921 20.0748 104.345 21.2586 105.195 22.1308C106.044 22.9782 107.119 23.4019 108.418 23.4019C109.392 23.4019 110.342 23.1651 111.266 22.6916C112.191 22.1931 112.978 21.4829 113.627 20.5607C114.302 19.6386 114.752 18.5545 114.977 17.3084Z" fill="url(#paint0_linear)"/>
<path d="M129.808 28C128.284 28 126.897 27.7508 125.648 27.2523C124.424 26.729 123.449 26.0187 122.725 25.1215C122.025 24.1994 121.675 23.1526 121.675 21.9813C121.675 21.8069 121.7 21.5202 121.75 21.1215H126.847C126.772 21.9938 127.034 22.704 127.634 23.2523C128.234 23.7757 129.083 24.0374 130.183 24.0374C131.182 24.0374 132.007 23.8629 132.656 23.514C133.331 23.1402 133.668 22.6044 133.668 21.9065C133.668 21.2835 133.356 20.785 132.731 20.4112C132.131 20.0374 131.17 19.6137 129.845 19.1402C128.521 18.6667 127.422 18.2056 126.547 17.757C125.673 17.3084 124.923 16.6854 124.299 15.8879C123.674 15.0903 123.362 14.081 123.362 12.8598C123.362 11.6386 123.711 10.5545 124.411 9.60748C125.136 8.66044 126.135 7.92523 127.409 7.40187C128.684 6.8785 130.145 6.61682 131.794 6.61682C133.368 6.61682 134.755 6.8785 135.954 7.40187C137.154 7.92523 138.078 8.66044 138.728 9.60748C139.402 10.5296 139.74 11.5888 139.74 12.785C139.74 13.0841 139.727 13.3084 139.702 13.4579H134.83C134.905 12.5857 134.655 11.8879 134.08 11.3645C133.506 10.8411 132.669 10.5794 131.569 10.5794C130.67 10.5794 129.933 10.7788 129.358 11.1776C128.783 11.5514 128.496 12.0623 128.496 12.7103C128.496 13.3583 128.821 13.8941 129.471 14.3178C130.12 14.7165 131.12 15.1651 132.469 15.6636C133.818 16.1869 134.892 16.6729 135.692 17.1215C136.516 17.5452 137.228 18.1433 137.828 18.9159C138.428 19.6636 138.728 20.6106 138.728 21.757C138.728 23.028 138.34 24.1371 137.566 25.0841C136.791 26.0312 135.729 26.7539 134.38 27.2523C133.031 27.7508 131.507 28 129.808 28Z" fill="url(#paint1_linear)"/>
<path d="M151.992 17.3084L159.338 27.6636H152.554L147.082 18.8785L145.508 27.6636H140.224L145.133 0H150.418L147.644 15.7009L156.114 6.95327H162.973L151.992 17.3084Z" fill="url(#paint2_linear)"/>
<path d="M87.9167 8.97198L95.4257 17.1496L87.9167 25.3271L86.4892 24.1629L88.502 22.0007C88.74 21.7419 88.9969 21.4924 89.2729 21.2522C89.5489 21.0027 89.9201 20.7532 90.3864 20.5037H67.3172V18.896H91.4142L93.0559 17.1496L91.4142 15.4032H67.3172V13.8092H90.3864C89.9201 13.5505 89.5489 13.2918 89.2729 13.033C88.9969 12.7743 88.74 12.5156 88.502 12.2569L86.4892 10.1362L87.9167 8.97198Z" fill="url(#paint3_linear)"/>
<path d="M0.625244 17.2336C0.625244 15.1402 1.0375 13.2835 1.86202 11.6636C2.71152 10.0436 3.86084 8.79751 5.30999 7.92523C6.75913 7.05296 8.37068 6.61682 10.1446 6.61682C11.4938 6.61682 12.7806 6.91589 14.0049 7.51402C15.2291 8.08723 16.2036 8.85981 16.9281 9.83178V0H22.25V27.6636H16.9281V24.5981C16.2785 25.6199 15.3666 26.4424 14.1923 27.0654C13.0179 27.6885 11.6562 28 10.1072 28C8.35819 28 6.75913 27.5514 5.30999 26.6542C3.86084 25.757 2.71152 24.4984 1.86202 22.8785C1.0375 21.2336 0.625244 19.352 0.625244 17.2336ZM16.9656 17.3084C16.9656 16.0374 16.7158 14.9533 16.2161 14.0561C15.7164 13.134 15.0418 12.4361 14.1923 11.9626C13.3428 11.4642 12.4308 11.215 11.4564 11.215C10.4819 11.215 9.58247 11.4517 8.75795 11.9252C7.93344 12.3988 7.25884 13.0966 6.73415 14.0187C6.23444 14.9159 5.98459 15.9875 5.98459 17.2336C5.98459 18.4798 6.23444 19.5763 6.73415 20.5234C7.25884 21.4455 7.93344 22.1558 8.75795 22.6542C9.60745 23.1526 10.5069 23.4019 11.4564 23.4019C12.4308 23.4019 13.3428 23.1651 14.1923 22.6916C15.0418 22.1931 15.7164 21.4953 16.2161 20.5981C16.7158 19.676 16.9656 18.5794 16.9656 17.3084Z" fill="black"/>
<path d="M44.8018 16.8598C44.8018 17.6075 44.7518 18.2804 44.6519 18.8785H29.4733C29.5982 20.3738 30.1229 21.5452 31.0474 22.3925C31.9718 23.2399 33.1087 23.6636 34.4579 23.6636C36.4067 23.6636 37.7934 22.8287 38.6179 21.1589H44.2771C43.6774 23.1526 42.5281 24.7975 40.8291 26.0935C39.1301 27.3645 37.0438 28 34.5703 28C32.5715 28 30.7725 27.5639 29.1735 26.6916C27.5994 25.7944 26.3626 24.5358 25.4632 22.9159C24.5887 21.296 24.1514 19.4268 24.1514 17.3084C24.1514 15.1651 24.5887 13.2835 25.4632 11.6636C26.3376 10.0436 27.5619 8.79751 29.136 7.92523C30.7101 7.05296 32.5215 6.61682 34.5703 6.61682C36.5441 6.61682 38.3056 7.0405 39.8547 7.88785C41.4288 8.7352 42.6405 9.94392 43.49 11.514C44.3645 13.0592 44.8018 14.8411 44.8018 16.8598ZM39.3675 15.3645C39.3425 14.0187 38.8553 12.947 37.9058 12.1495C36.9564 11.3271 35.7946 10.9159 34.4204 10.9159C33.1211 10.9159 32.0218 11.3146 31.1223 12.1121C30.2478 12.8847 29.7107 13.9688 29.5108 15.3645H39.3675Z" fill="black"/>
<path d="M55.415 22.8411L60.662 6.95327H66.2462L58.5632 27.6636H52.1919L44.5464 6.95327H50.1681L55.415 22.8411Z" fill="black"/>
<defs>
<linearGradient id="paint0_linear" x1="104.771" y1="11.3084" x2="124.511" y2="47.0956" gradientUnits="userSpaceOnUse">
<stop stop-color="#4568DC"/>
<stop offset="1" stop-color="#00B4DB"/>
</linearGradient>
<linearGradient id="paint1_linear" x1="104.771" y1="11.3084" x2="124.511" y2="47.0956" gradientUnits="userSpaceOnUse">
<stop stop-color="#4568DC"/>
<stop offset="1" stop-color="#00B4DB"/>
</linearGradient>
<linearGradient id="paint2_linear" x1="104.771" y1="11.3084" x2="124.511" y2="47.0956" gradientUnits="userSpaceOnUse">
<stop stop-color="#4568DC"/>
<stop offset="1" stop-color="#00B4DB"/>
</linearGradient>
<linearGradient id="paint3_linear" x1="70.0712" y1="15.5774" x2="83.1057" y2="33.2008" gradientUnits="userSpaceOnUse">
<stop stop-color="#4568DC"/>
<stop offset="1" stop-color="#00B4DB"/>
</linearGradient>
</defs>
</svg>
